<svg id="icon" xmlns="http://www.w3.org/2000/svg" viewBox="0 0 512 512"><defs><style>.cls-1{fill:#fff;}.cls-2{fill:#ccc;}.cls-3{fill:#a4d9ed;}.cls-4{fill:#70b0c4;}.cls-5{fill:#c5edf9;}.cls-6{fill:#4d4d4d;}</style></defs><title>eye</title><path class="cls-1" d="M88,311.42s90.47-184,306.12-88.82C394.08,222.6,351.53,427.8,88,311.42Z"/><path class="cls-2" d="M385.49,248l.31-.72c.36-.85.71-1.69,1-2.51l.19-.44c1.18-2.93,2.19-5.64,3.05-8.09.06-.19.12-.37.19-.56.2-.6.41-1.19.59-1.75.08-.25.16-.47.23-.71l.47-1.43c.07-.25.15-.48.22-.72.13-.42.26-.83.37-1.22s.14-.46.21-.69.21-.72.31-1.06.11-.41.17-.61.17-.62.25-.92l.15-.52c.07-.28.14-.52.2-.77s.08-.3.11-.43.11-.43.15-.62l.09-.34c0-.18.07-.32.11-.46s0-.16.05-.23l.07-.3,0-.12,0-.14c-2.4-1-4.77-2.06-7.13-3l-1.49-.62c-2.32-1-4.63-1.9-6.93-2.79l-.82-.32c-2.21-.85-4.4-1.68-6.58-2.47l-.85-.32q-3.52-1.28-7-2.45l-.8-.27q-7.19-2.42-14.17-4.41l-.45-.13q-7.22-2-14.2-3.67h0C161.4,162.09,88,311.42,88,311.42q3.36,1.49,6.66,2.89c26-33.67,96.39-102.25,226.69-80.9h0c3.47.57,7,1.18,10.52,1.88A29.53,29.53,0,0,1,334,289.74a8.34,8.34,0,0,0-3.9,11.34,101.48,101.48,0,0,0,7,11.81c24.75-19.91,39.36-44.62,47.58-63.16h0C385,249.13,385.24,248.55,385.49,248Z"/><path class="cls-3" d="M289.67,195.77c-56.31-3-99.41,15.45-130.81,38.54-.09,1.5-.16,3-.16,4.54A72.77,72.77,0,0,0,162,260.66a26.87,26.87,0,1,1,31.38,40.11,72.57,72.57,0,0,0,96.25-105Z"/><path class="cls-4" d="M303.41,231a72.18,72.18,0,0,0-13.74-35.2c-56.31-3-99.41,15.45-130.81,38.54-.09,1.5-.16,3-.16,4.54a72.55,72.55,0,0,0,2.39,18.47q5-2.79,10.38-5.4a25.41,25.41,0,0,1,3.07-1.46C207.46,235.08,250,225.31,303.41,231Z"/><path class="cls-5" d="M249.85,309a34.89,34.89,0,0,0-43.52-49.2,26.82,26.82,0,0,1-12.91,41A72.66,72.66,0,0,0,249.85,309Z"/><circle class="cls-1" cx="250.55" cy="244.57" r="20.14"/><path class="cls-6" d="M256,17.45a238.85,238.85,0,0,0-114.16,29,5.83,5.83,0,1,0,5.59,10.23A227.2,227.2,0,0,1,256,29.11c125.11,0,226.89,101.78,226.89,226.89S381.11,482.89,256,482.89,29.11,381.11,29.11,256a225.83,225.83,0,0,1,38.6-126.65,5.82,5.82,0,1,0-9.66-6.51A237.35,237.35,0,0,0,17.45,256c0,131.54,107,238.55,238.55,238.55S494.55,387.54,494.55,256,387.54,17.45,256,17.45Z"/><path class="cls-6" d="M103.08,88.38l2.15-1.94a5.83,5.83,0,1,0-7.75-8.7c-.76.67-1.51,1.35-2.26,2a5.83,5.83,0,0,0,7.86,8.61Z"/><path class="cls-6" d="M385.56,253.64a5.83,5.83,0,1,0-1.14-11.55,6.85,6.85,0,0,0-1.09.33,7.4,7.4,0,0,0-1,.54,5.67,5.67,0,0,0-.89.73,5.83,5.83,0,0,0,4.12,9.95Z"/><path class="cls-6" d="M398.63,287.5a5.83,5.83,0,0,0,6.31-9.8,47.84,47.84,0,0,0-24.69-8.05,5.81,5.81,0,0,0-10.8-3c-1.36,2.26-2.79,4.52-4.29,6.76l0,.05c-34.68,52.18-106.33,98.43-253,41.91a5.83,5.83,0,0,0-4.19,10.88c45.62,17.57,87.09,26.38,124,26.38q33.48,0,61.87-9.68a157.82,157.82,0,0,0,18.85-7.85c2.7.95,12.43,5.25,18.28,19.28a5.83,5.83,0,0,0,5.38,3.59,5.72,5.72,0,0,0,2.24-.46,5.82,5.82,0,0,0,3.14-7.62c-4.63-11.09-11.35-17.66-16.93-21.47a156.49,156.49,0,0,0,23.91-18c2.77,0,13.53.72,23.78,11.81a5.83,5.83,0,0,0,8.56-7.91,47.9,47.9,0,0,0-22.17-14.05,168.35,168.35,0,0,0,14.65-18.45C377.09,281,387,280,398.63,287.5Z"/><path class="cls-6" d="M81.82,337.6a6,6,0,0,0,.94.07,5.83,5.83,0,0,0,5.75-4.9,156.19,156.19,0,0,1,5-19.32c2.48-4.77,21.7-40.05,59.57-69.66a78.61,78.61,0,0,0,3.44,18.62,5.83,5.83,0,0,0,10.43,1.46,21,21,0,1,1,24.57,31.41,5.83,5.83,0,0,0-1.1,10.46,78.42,78.42,0,0,0,116.39-88.09,5.83,5.83,0,1,0-11.22,3.15,66.77,66.77,0,0,1-90,79.64A32.7,32.7,0,0,0,165.29,249a68,68,0,0,1-.76-10.1c0-.47,0-1.12,0-1.85,0-.47,0-1,0-1.57,48.94-33.25,105.31-42.46,168.17-27.64a5.43,5.43,0,0,0,1.19.35l.94.15a341.53,341.53,0,0,1,56.92,19.64l.08,0,.08,0a264.2,264.2,0,0,1,26.79,13,5.83,5.83,0,0,0,5.74-10.14,273.06,273.06,0,0,0-28.13-13.69c-7.27-3.21-14.47-6.1-21.63-8.75,13.07-1.81,27.26-5.86,39.33-14.23a5.83,5.83,0,1,0-6.64-9.58c-27.77,19.26-71,12.08-71.48,12h-.14c-28.12-6.61-55.23-8.69-81-6.12a207,207,0,0,0-97.84,36,237.75,237.75,0,0,0-38.48,33.18c2.66-4.19,5.52-8.41,8.63-12.63,41.57-56.3,103.82-84.55,185-83.94h0a5.83,5.83,0,0,0,0-11.65c-46.8-.31-88.34,8.84-123.39,27.31a208.9,208.9,0,0,0-71.38,61.77C84.67,285,77.3,329.07,77,330.92A5.83,5.83,0,0,0,81.82,337.6Z"/><path class="cls-6" d="M359.38,129.67a5.84,5.84,0,0,0-7.39,3.65c-8.35,24.63-32.47,35.19-32.76,35.32a5.83,5.83,0,0,0,4.54,10.73,76.93,76.93,0,0,0,21.16-14.46c10,1,20.34,2.34,30.81,4.11a5.36,5.36,0,0,0,1,.08,5.83,5.83,0,0,0,1-11.57c-7.91-1.34-15.74-2.45-23.43-3.34A66.34,66.34,0,0,0,363,137.06,5.83,5.83,0,0,0,359.38,129.67Z"/><path class="cls-6" d="M242.43,232.78a5.83,5.83,0,1,0-6.62-9.59A26,26,0,1,0,276,249.8a5.83,5.83,0,1,0-11.42-2.33,14.31,14.31,0,1,1-22.14-14.69Z"/><path class="cls-6" d="M260.26,234.06a5.83,5.83,0,0,0,7.9-8.57c-.58-.53-1.19-1.05-1.82-1.53a5.83,5.83,0,0,0-7.1,9.24C259.59,233.48,259.93,233.76,260.26,234.06Z"/></svg>