<svg xmlns="http://www.w3.org/2000/svg"  viewBox="0 0 32 32" width="32px" height="32px"><path d="M 16 4.0019531 C 13.080734 4.0019531 10.162879 4.3477666 7.25 5.0390625 C 6.154664 5.2984842 5.2984842 6.154664 5.0390625 7.25 C 3.6564707 13.075758 3.6564707 18.926195 5.0390625 24.751953 C 5.2984842 25.847289 6.154664 26.703469 7.25 26.962891 C 13.075758 28.345482 18.926195 28.345482 24.751953 26.962891 L 24.751953 26.960938 C 25.845616 26.700397 26.700397 25.845616 26.960938 24.751953 L 26.962891 24.751953 C 28.345482 18.926195 28.345482 13.075758 26.962891 7.25 C 26.703422 6.154711 25.847289 5.2984842 24.751953 5.0390625 C 21.839074 4.3477666 18.919266 4.0019531 16 4.0019531 z M 16 6 C 18.761234 6 21.523895 6.3276709 24.291016 6.984375 C 24.63968 7.066953 24.933047 7.3622735 25.015625 7.7109375 C 26.328881 13.244537 26.328576 18.755469 25.015625 24.289062 C 24.932165 24.639401 24.6394 24.932165 24.289062 25.015625 C 18.75547 26.328576 13.244537 26.328881 7.7109375 25.015625 C 7.3622735 24.933047 7.0669533 24.63968 6.984375 24.291016 C 5.6709668 18.756773 5.6709668 13.24518 6.984375 7.7109375 C 7.0669533 7.3622735 7.3622735 7.0669533 7.7109375 6.984375 C 10.478059 6.3276709 13.238766 6 16 6 z M 14.435547 10 C 13.376547 10 12.558594 10.922281 12.558594 12.613281 C 12.558594 13.718281 14.230891 16.55025 15.712891 19.03125 C 15.712891 12.60825 15.555547 11.913 14.435547 10 z M 17.564453 10 C 16.422453 11.88 16.287109 12.609203 16.287109 19.033203 C 17.769109 16.552203 19.441406 13.718281 19.441406 12.613281 C 19.441406 10.921281 18.623453 10 17.564453 10 z M 10.783203 12.087891 C 9.2292031 13.172891 9.7394375 15.739125 10.523438 16.578125 C 11.040437 17.120125 13.052031 18.096625 14.957031 19.390625 L 10.783203 12.087891 z M 21.216797 12.087891 L 17.042969 19.390625 C 18.947969 18.096625 20.959563 17.120125 21.476562 16.578125 C 22.260562 15.739125 22.770797 13.172891 21.216797 12.087891 z M 8.6953125 16.261719 C 8.7203125 19.152719 10.484734 19.912109 11.677734 19.912109 L 14.660156 19.912109 L 8.6953125 16.261719 z M 23.304688 16.261719 L 17.339844 19.912109 L 20.322266 19.912109 C 21.515266 19.912109 23.279688 19.152719 23.304688 16.261719 z M 10.322266 20.435547 C 10.489266 21.298547 10.865219 22 11.949219 22 C 13.033219 22 14.083156 21.374547 14.660156 20.435547 L 10.322266 20.435547 z M 17.339844 20.435547 C 17.916844 21.374547 18.966781 22 20.050781 22 C 21.134781 22 21.510734 21.298547 21.677734 20.435547 L 17.339844 20.435547 z"/></svg>