<?xml version="1.0" encoding="UTF-8" standalone="no"?>
<!-- Created with Inkscape (http://www.inkscape.org/) -->

<svg
   xmlns:dc="http://purl.org/dc/elements/1.1/"
   xmlns:cc="http://creativecommons.org/ns#"
   xmlns:rdf="http://www.w3.org/1999/02/22-rdf-syntax-ns#"
   xmlns:svg="http://www.w3.org/2000/svg"
   xmlns="http://www.w3.org/2000/svg"
   xmlns:sodipodi="http://sodipodi.sourceforge.net/DTD/sodipodi-0.dtd"
   xmlns:inkscape="http://www.inkscape.org/namespaces/inkscape"
   width="48pt"
   height="48pt"
   viewBox="0 0 16.933334 16.933333"
   version="1.1"
   id="svg979"
   inkscape:version="0.92.4 (5da689c313, 2019-01-14)"
   sodipodi:docname="16 - Jam.svg"
   inkscape:export-filename="E:\TR Design Studio Creative\Project Design\TR Creative Design\Icon Design\Project Hiring\Icon Icons\Project - 001\001 - Agriculture And Farming\Filled Line\Export\16 - Jam.png"
   inkscape:export-xdpi="768"
   inkscape:export-ydpi="768">
  <defs
     id="defs973" />
  <sodipodi:namedview
     id="base"
     pagecolor="#ffffff"
     bordercolor="#666666"
     borderopacity="1.0"
     inkscape:pageopacity="0.0"
     inkscape:pageshadow="2"
     inkscape:zoom="4.2734375"
     inkscape:cx="31.889908"
     inkscape:cy="34.753721"
     inkscape:document-units="pt"
     inkscape:current-layer="layer1"
     showgrid="false"
     units="pt"
     inkscape:window-width="1366"
     inkscape:window-height="716"
     inkscape:window-x="-8"
     inkscape:window-y="-8"
     inkscape:window-maximized="1"
     inkscape:snap-bbox="true"
     inkscape:bbox-nodes="true"
     inkscape:snap-nodes="false"
     showguides="false"
     inkscape:snap-global="true">
    <inkscape:grid
       type="xygrid"
       id="grid1526" />
    <sodipodi:guide
       position="0.97013909,15.963209"
       orientation="56.666615,0"
       id="guide1528"
       inkscape:locked="false" />
    <sodipodi:guide
       position="0.97013909,0.97016731"
       orientation="0,56.666667"
       id="guide1530"
       inkscape:locked="false" />
    <sodipodi:guide
       position="15.963195,0.97016731"
       orientation="-56.666615,0"
       id="guide1532"
       inkscape:locked="false" />
    <sodipodi:guide
       position="15.963195,15.963209"
       orientation="0,-56.666667"
       id="guide1534"
       inkscape:locked="false" />
  </sodipodi:namedview>
  <metadata
     id="metadata976">
    <rdf:RDF>
      <cc:Work
         rdf:about="">
        <dc:format>image/svg+xml</dc:format>
        <dc:type
           rdf:resource="http://purl.org/dc/dcmitype/StillImage" />
        <dc:title></dc:title>
      </cc:Work>
    </rdf:RDF>
  </metadata>
  <g
     inkscape:label="Layer 1"
     inkscape:groupmode="layer"
     id="layer1"
     transform="translate(0,-280.06668)">
    <g
       id="g3316"
       transform="matrix(1.2303327,0,0,1.2303327,-4.1782448,-67.734582)"
       style="stroke-width:0.81278831">
      <g
         inkscape:export-ydpi="826.16193"
         inkscape:export-xdpi="826.16193"
         id="g2019"
         style="display:inline;stroke-width:0.81278831"
         transform="translate(47.956664,-23.094743)">
        <path
           style="color:#000000;font-style:normal;font-variant:normal;font-weight:normal;font-stretch:normal;font-size:medium;line-height:normal;font-family:sans-serif;font-variant-ligatures:normal;font-variant-position:normal;font-variant-caps:normal;font-variant-numeric:normal;font-variant-alternates:normal;font-feature-settings:normal;text-indent:0;text-align:start;text-decoration:none;text-decoration-line:none;text-decoration-style:solid;text-decoration-color:#000000;letter-spacing:normal;word-spacing:normal;text-transform:none;writing-mode:lr-tb;direction:ltr;text-orientation:mixed;dominant-baseline:auto;baseline-shift:baseline;text-anchor:start;white-space:normal;shape-padding:0;clip-rule:nonzero;display:inline;overflow:visible;visibility:visible;opacity:1;isolation:auto;mix-blend-mode:normal;color-interpolation:sRGB;color-interpolation-filters:linearRGB;solid-color:#000000;solid-opacity:1;vector-effect:none;fill:#e9e9e9;fill-opacity:1;fill-rule:nonzero;stroke:none;stroke-width:0.43010074;stroke-linecap:round;stroke-linejoin:round;stroke-miterlimit:4;stroke-dasharray:none;stroke-dashoffset:0;stroke-opacity:1;color-rendering:auto;image-rendering:auto;shape-rendering:auto;text-rendering:auto;enable-background:accumulate"
           d="m -34.642578,311.20703 a 0.26460996,0.26460996 0 0 0 -0.244141,0.36524 c 0,0 0.360113,0.87077 0.359375,2.41601 -3.7e-4,0.77577 -0.07494,1.20998 -0.152344,1.60156 -0.0774,0.39158 -0.162109,0.7533 -0.162109,1.3086 10e-7,0.71903 0.544149,1.32226 1.212891,1.32226 0.668741,0 1.212889,-0.60323 1.21289,-1.32226 0,-0.5553 -0.08471,-0.91702 -0.162109,-1.3086 -0.0774,-0.39158 -0.151973,-0.82579 -0.152344,-1.60156 -7.38e-4,-1.54524 0.359375,-2.41601 0.359375,-2.41601 a 0.26460996,0.26460996 0 0 0 -0.246094,-0.36524 z"
           id="path2310"
           inkscape:connector-curvature="0"
           inkscape:export-xdpi="826.16193"
           inkscape:export-ydpi="826.16193" />
        <path
           style="color:#000000;font-style:normal;font-variant:normal;font-weight:normal;font-stretch:normal;font-size:medium;line-height:normal;font-family:sans-serif;font-variant-ligatures:normal;font-variant-position:normal;font-variant-caps:normal;font-variant-numeric:normal;font-variant-alternates:normal;font-feature-settings:normal;text-indent:0;text-align:start;text-decoration:none;text-decoration-line:none;text-decoration-style:solid;text-decoration-color:#000000;letter-spacing:normal;word-spacing:normal;text-transform:none;writing-mode:lr-tb;direction:ltr;text-orientation:mixed;dominant-baseline:auto;baseline-shift:baseline;text-anchor:start;white-space:normal;shape-padding:0;clip-rule:nonzero;display:inline;overflow:visible;visibility:visible;opacity:1;isolation:auto;mix-blend-mode:normal;color-interpolation:sRGB;color-interpolation-filters:linearRGB;solid-color:#000000;solid-opacity:1;vector-effect:none;fill:#cccccc;fill-opacity:1;fill-rule:nonzero;stroke:none;stroke-width:1.62557757;stroke-linecap:round;stroke-linejoin:round;stroke-miterlimit:4;stroke-dasharray:none;stroke-dashoffset:0;stroke-opacity:1;color-rendering:auto;image-rendering:auto;shape-rendering:auto;text-rendering:auto;enable-background:accumulate"
           d="m -130.93164,101.69531 a 1.0001006,1.0001006 0 0 0 -0.92383,1.38086 c 0,0 0.72766,1.78174 1.11719,5.02344 1.07352,0.70263 2.30467,1.10937 3.63672,1.10937 1.33204,0 2.56414,-0.40674 3.63672,-1.10937 0.38953,-3.2417 1.11718,-5.02344 1.11718,-5.02344 a 1.0001006,1.0001006 0 0 0 -0.92968,-1.38086 z"
           transform="matrix(0.26458333,0,0,0.26458333,0,284.3)"
           id="path2312"
           inkscape:connector-curvature="0"
           inkscape:export-xdpi="826.16193"
           inkscape:export-ydpi="826.16193" />
        <path
           style="color:#000000;font-style:normal;font-variant:normal;font-weight:normal;font-stretch:normal;font-size:medium;line-height:normal;font-family:sans-serif;font-variant-ligatures:normal;font-variant-position:normal;font-variant-caps:normal;font-variant-numeric:normal;font-variant-alternates:normal;font-feature-settings:normal;text-indent:0;text-align:start;text-decoration:none;text-decoration-line:none;text-decoration-style:solid;text-decoration-color:#000000;letter-spacing:normal;word-spacing:normal;text-transform:none;writing-mode:lr-tb;direction:ltr;text-orientation:mixed;dominant-baseline:auto;baseline-shift:baseline;text-anchor:start;white-space:normal;shape-padding:0;clip-rule:nonzero;display:inline;overflow:visible;visibility:visible;opacity:1;isolation:auto;mix-blend-mode:normal;color-interpolation:sRGB;color-interpolation-filters:linearRGB;solid-color:#000000;solid-opacity:1;vector-effect:none;fill:#f9f9f9;fill-opacity:1;fill-rule:nonzero;stroke:none;stroke-width:0.43010074;stroke-linecap:round;stroke-linejoin:round;stroke-miterlimit:4;stroke-dasharray:none;stroke-dashoffset:0;stroke-opacity:1;color-rendering:auto;image-rendering:auto;shape-rendering:auto;text-rendering:auto;enable-background:accumulate"
           d="m -33.628906,307.10938 c -1.163361,-10e-6 -2.044925,1.15848 -2.044922,2.51367 10e-7,1.35518 0.881564,2.51367 2.044922,2.51367 1.163357,0 2.042967,-1.15849 2.042968,-2.51367 4e-6,-1.35519 -0.879608,-2.51367 -2.042968,-2.51367 z"
           id="path2305"
           inkscape:connector-curvature="0"
           inkscape:export-xdpi="826.16193"
           inkscape:export-ydpi="826.16193" />
        <path
           style="color:#000000;font-style:normal;font-variant:normal;font-weight:normal;font-stretch:normal;font-size:medium;line-height:normal;font-family:sans-serif;font-variant-ligatures:normal;font-variant-position:normal;font-variant-caps:normal;font-variant-numeric:normal;font-variant-alternates:normal;font-feature-settings:normal;text-indent:0;text-align:start;text-decoration:none;text-decoration-line:none;text-decoration-style:solid;text-decoration-color:#000000;letter-spacing:normal;word-spacing:normal;text-transform:none;writing-mode:lr-tb;direction:ltr;text-orientation:mixed;dominant-baseline:auto;baseline-shift:baseline;text-anchor:start;white-space:normal;shape-padding:0;clip-rule:nonzero;display:inline;overflow:visible;visibility:visible;opacity:1;isolation:auto;mix-blend-mode:normal;color-interpolation:sRGB;color-interpolation-filters:linearRGB;solid-color:#000000;solid-opacity:1;vector-effect:none;fill:#f9f9f9;fill-opacity:1;fill-rule:nonzero;stroke:none;stroke-width:0.43010074;stroke-linecap:round;stroke-linejoin:round;stroke-miterlimit:4;stroke-dasharray:none;stroke-dashoffset:0;stroke-opacity:1;color-rendering:auto;image-rendering:auto;shape-rendering:auto;text-rendering:auto;enable-background:accumulate"
           d="m -42.195312,308.16797 a 0.26460996,0.26460996 0 0 0 -0.205079,0.13476 l -1.322265,2.38282 a 0.26460996,0.26460996 0 0 0 -0.0098,0.0176 c -0.04217,0.0928 -0.04483,0.20667 -0.01563,0.29297 0.02921,0.0863 0.08076,0.14905 0.134766,0.19727 0.03401,0.0304 0.08326,0.0254 0.121093,0.0469 v 5.39258 0.002 c -0.09591,0.0962 -0.263671,0.11964 -0.263671,0.26367 v 0.79297 c 0,0.28858 0.238766,0.52929 0.527343,0.52929 h 6.615235 c 0.288577,0 0.529297,-0.24071 0.529297,-0.52929 v -0.79297 c 0,-0.14376 -0.168074,-0.16754 -0.263672,-0.26367 v -5.39649 c 0.03805,-0.0216 0.08856,-0.0164 0.123047,-0.0469 0.05457,-0.0482 0.107323,-0.11076 0.136718,-0.20118 0.0294,-0.0904 0.02234,-0.21173 -0.0293,-0.30468 l -1.322265,-2.38282 a 0.26460996,0.26460996 0 0 0 -0.232422,-0.13476 h -4.498047 a 0.26460996,0.26460996 0 0 0 -0.02539,0 z"
           id="path2240"
           inkscape:connector-curvature="0"
           inkscape:export-xdpi="826.16193"
           inkscape:export-ydpi="826.16193" />
        <path
           style="color:#000000;font-style:normal;font-variant:normal;font-weight:normal;font-stretch:normal;font-size:medium;line-height:normal;font-family:sans-serif;font-variant-ligatures:normal;font-variant-position:normal;font-variant-caps:normal;font-variant-numeric:normal;font-variant-alternates:normal;font-feature-settings:normal;text-indent:0;text-align:start;text-decoration:none;text-decoration-line:none;text-decoration-style:solid;text-decoration-color:#000000;letter-spacing:normal;word-spacing:normal;text-transform:none;writing-mode:lr-tb;direction:ltr;text-orientation:mixed;dominant-baseline:auto;baseline-shift:baseline;text-anchor:start;white-space:normal;shape-padding:0;clip-rule:nonzero;display:inline;overflow:visible;visibility:visible;opacity:1;isolation:auto;mix-blend-mode:normal;color-interpolation:sRGB;color-interpolation-filters:linearRGB;solid-color:#000000;solid-opacity:1;vector-effect:none;fill:#e9e9e9;fill-opacity:1;fill-rule:nonzero;stroke:none;stroke-width:0.43010074;stroke-linecap:round;stroke-linejoin:round;stroke-miterlimit:4;stroke-dasharray:none;stroke-dashoffset:0;stroke-opacity:1;color-rendering:auto;image-rendering:auto;shape-rendering:auto;text-rendering:auto;enable-background:accumulate"
           d="m -38.730495,308.16779 a 0.26460995,0.26460995 0 0 1 0.232543,0.13488 l 1.3224,2.3828 c 0.05164,0.0929 0.05886,0.21449 0.02946,0.30489 -0.0294,0.0904 -0.08237,0.15282 -0.136943,0.20102 -0.03448,0.0305 -0.08494,0.0254 -0.122989,0.047 v 5.39657 c 0.0956,0.0961 0.263549,0.11979 0.263549,0.26355 v 0.79323 c 0,0.28858 -0.240588,0.52917 -0.529166,0.52917 h 1.058333 c 0.288577,0 0.529167,-0.24059 0.529167,-0.52917 v -0.79323 c 0,-0.14376 -0.167952,-0.16742 -0.26355,-0.26355 v -5.39657 c 0.03805,-0.0216 0.0885,-0.0165 0.12299,-0.047 0.05457,-0.0482 0.107548,-0.1106 0.136942,-0.20102 0.0294,-0.0904 0.02219,-0.21194 -0.02945,-0.30489 l -1.322401,-2.3828 a 0.26460995,0.26460995 0 0 0 -0.232542,-0.13488 z"
           id="path2258"
           inkscape:connector-curvature="0"
           inkscape:export-xdpi="826.16193"
           inkscape:export-ydpi="826.16193" />
        <path
           style="color:#000000;font-style:normal;font-variant:normal;font-weight:normal;font-stretch:normal;font-size:medium;line-height:normal;font-family:sans-serif;font-variant-ligatures:normal;font-variant-position:normal;font-variant-caps:normal;font-variant-numeric:normal;font-variant-alternates:normal;font-feature-settings:normal;text-indent:0;text-align:start;text-decoration:none;text-decoration-line:none;text-decoration-style:solid;text-decoration-color:#000000;letter-spacing:normal;word-spacing:normal;text-transform:none;writing-mode:lr-tb;direction:ltr;text-orientation:mixed;dominant-baseline:auto;baseline-shift:baseline;text-anchor:start;white-space:normal;shape-padding:0;clip-rule:nonzero;display:inline;overflow:visible;visibility:visible;opacity:1;isolation:auto;mix-blend-mode:normal;color-interpolation:sRGB;color-interpolation-filters:linearRGB;solid-color:#000000;solid-opacity:1;vector-effect:none;fill:#ed5050;fill-opacity:1;fill-rule:nonzero;stroke:none;stroke-width:0.43010074;stroke-linecap:round;stroke-linejoin:round;stroke-miterlimit:4;stroke-dasharray:none;stroke-dashoffset:0;stroke-opacity:1;color-rendering:auto;image-rendering:auto;shape-rendering:auto;text-rendering:auto;enable-background:accumulate"
           d="m -42.787109,309.22656 a 0.26460996,0.26460996 0 0 0 -0.201172,0.13477 l -0.734375,1.32422 a 0.26460996,0.26460996 0 0 0 -0.0098,0.0176 c -0.04217,0.0928 -0.04483,0.20667 -0.01563,0.29297 0.02921,0.0863 0.08076,0.14905 0.134766,0.19727 0.03401,0.0304 0.08326,0.0254 0.121093,0.0469 v 5.39258 0.002 c -0.09591,0.0962 -0.263671,0.11964 -0.263671,0.26367 v 0.79297 c 0,0.28858 0.238766,0.52929 0.527343,0.52929 h 6.615235 c 0.288577,0 0.529297,-0.24071 0.529297,-0.52929 v -0.79297 c 0,-0.14376 -0.168074,-0.16754 -0.263672,-0.26367 v -5.39649 c 0.03805,-0.0216 0.08856,-0.0164 0.123047,-0.0469 0.05457,-0.0482 0.107323,-0.11076 0.136718,-0.20118 0.0294,-0.0904 0.02234,-0.21173 -0.0293,-0.30468 l -0.734374,-1.32422 a 0.26460996,0.26460996 0 0 0 -0.378907,-0.0918 c 0,0 -0.344546,0.2207 -0.742187,0.2207 -0.397642,0 -0.970825,-0.26367 -1.947266,-0.26367 -0.976441,0 -1.463819,0.26367 -1.947266,0.26367 -0.483446,0 -0.722656,-0.20507 -0.722656,-0.20507 a 0.26460996,0.26460996 0 0 0 -0.197265,-0.0586 z"
           id="path2221"
           inkscape:connector-curvature="0"
           inkscape:export-xdpi="826.16193"
           inkscape:export-ydpi="826.16193" />
        <path
           style="color:#000000;font-style:normal;font-variant:normal;font-weight:normal;font-stretch:normal;font-size:medium;line-height:normal;font-family:sans-serif;font-variant-ligatures:normal;font-variant-position:normal;font-variant-caps:normal;font-variant-numeric:normal;font-variant-alternates:normal;font-feature-settings:normal;text-indent:0;text-align:start;text-decoration:none;text-decoration-line:none;text-decoration-style:solid;text-decoration-color:#000000;letter-spacing:normal;word-spacing:normal;text-transform:none;writing-mode:lr-tb;direction:ltr;text-orientation:mixed;dominant-baseline:auto;baseline-shift:baseline;text-anchor:start;white-space:normal;shape-padding:0;clip-rule:nonzero;display:inline;overflow:visible;visibility:visible;opacity:1;isolation:auto;mix-blend-mode:normal;color-interpolation:sRGB;color-interpolation-filters:linearRGB;solid-color:#000000;solid-opacity:1;vector-effect:none;fill:#ca2a2a;fill-opacity:1;fill-rule:nonzero;stroke:none;stroke-width:0.43010074;stroke-linecap:round;stroke-linejoin:round;stroke-miterlimit:4;stroke-dasharray:none;stroke-dashoffset:0;stroke-opacity:1;color-rendering:auto;image-rendering:auto;shape-rendering:auto;text-rendering:auto;enable-background:accumulate"
           d="m -37.092348,309.22509 c -0.04941,0.002 -0.09739,0.017 -0.138493,0.0444 0,0 -0.272463,0.1737 -0.612366,0.21239 l 0.66766,1.20354 c 0.05164,0.0929 0.05834,0.21449 0.02894,0.30489 -0.02939,0.0904 -0.08186,0.15282 -0.136425,0.20102 -0.03449,0.0305 -0.08494,0.0254 -0.12299,0.047 v 5.39657 c 0.0956,0.0961 0.26355,0.11979 0.26355,0.26355 v 0.79323 c 0,0.28858 -0.24059,0.52917 -0.529167,0.52917 h 1.058334 c 0.288576,0 0.529166,-0.24059 0.529166,-0.52917 v -0.79323 c 0,-0.14376 -0.167952,-0.16742 -0.26355,-0.26355 v -5.39657 c 0.03805,-0.0216 0.0885,-0.0165 0.12299,-0.047 0.05457,-0.0482 0.107031,-0.1106 0.136426,-0.20102 0.0294,-0.0904 0.0227,-0.21194 -0.02894,-0.30489 l -0.734322,-1.32395 c -0.04819,-0.0872 -0.141261,-0.1399 -0.240812,-0.13643 z"
           id="path2251"
           inkscape:connector-curvature="0"
           sodipodi:nodetypes="ccccccccsscsssccccccc"
           inkscape:export-xdpi="826.16193"
           inkscape:export-ydpi="826.16193" />
        <path
           style="color:#000000;font-style:normal;font-variant:normal;font-weight:normal;font-stretch:normal;font-size:medium;line-height:normal;font-family:sans-serif;font-variant-ligatures:normal;font-variant-position:normal;font-variant-caps:normal;font-variant-numeric:normal;font-variant-alternates:normal;font-feature-settings:normal;text-indent:0;text-align:start;text-decoration:none;text-decoration-line:none;text-decoration-style:solid;text-decoration-color:#000000;letter-spacing:normal;word-spacing:normal;text-transform:none;writing-mode:lr-tb;direction:ltr;text-orientation:mixed;dominant-baseline:auto;baseline-shift:baseline;text-anchor:start;white-space:normal;shape-padding:0;clip-rule:nonzero;display:inline;overflow:visible;visibility:visible;opacity:1;isolation:auto;mix-blend-mode:normal;color-interpolation:sRGB;color-interpolation-filters:linearRGB;solid-color:#000000;solid-opacity:1;vector-effect:none;fill:#455a64;fill-opacity:1;fill-rule:nonzero;stroke:none;stroke-width:0.43010074;stroke-linecap:round;stroke-linejoin:round;stroke-miterlimit:4;stroke-dasharray:none;stroke-dashoffset:0;stroke-opacity:1;color-rendering:auto;image-rendering:auto;shape-rendering:auto;text-rendering:auto;enable-background:accumulate"
           d="m -42.963105,307.41827 v 1.01367 c -5.64e-4,0.14617 0.117499,0.26511 0.263672,0.26563 h 5.556641 c 0.146936,5.6e-4 0.266193,-0.11869 0.265625,-0.26563 v -1.05859 c -5.18e-4,-0.14617 -0.119455,-0.26423 -0.265625,-0.26367 h -5.507813 c -0.204327,0 -0.3125,0.1092 -0.3125,0.30859 z"
           id="path2227"
           inkscape:connector-curvature="0"
           sodipodi:nodetypes="ccccccccc"
           inkscape:export-xdpi="826.16193"
           inkscape:export-ydpi="826.16193" />
        <path
           style="color:#000000;font-style:normal;font-variant:normal;font-weight:normal;font-stretch:normal;font-size:medium;line-height:normal;font-family:sans-serif;font-variant-ligatures:normal;font-variant-position:normal;font-variant-caps:normal;font-variant-numeric:normal;font-variant-alternates:normal;font-feature-settings:normal;text-indent:0;text-align:start;text-decoration:none;text-decoration-line:none;text-decoration-style:solid;text-decoration-color:#000000;letter-spacing:normal;word-spacing:normal;text-transform:none;writing-mode:lr-tb;direction:ltr;text-orientation:mixed;dominant-baseline:auto;baseline-shift:baseline;text-anchor:start;white-space:normal;shape-padding:0;clip-rule:nonzero;display:inline;overflow:visible;visibility:visible;opacity:1;isolation:auto;mix-blend-mode:normal;color-interpolation:sRGB;color-interpolation-filters:linearRGB;solid-color:#000000;solid-opacity:1;vector-effect:none;fill:#ffdea5;fill-opacity:1;fill-rule:nonzero;stroke:none;stroke-width:1.62557757;stroke-linecap:round;stroke-linejoin:round;stroke-miterlimit:4;stroke-dasharray:none;stroke-dashoffset:0;stroke-opacity:1;color-rendering:auto;image-rendering:auto;shape-rendering:auto;text-rendering:auto;enable-background:accumulate"
           d="m -150.87891,99.208984 c -1.84524,0 -3.70966,0.243926 -5.24023,0.972656 -1.15097,0.54807 -1.65926,1.79488 -2.07422,3.02734 h -6.1875 v 18.99414 0.008 c -0.36249,0.36359 -0.99609,0.45173 -0.99609,0.99609 h 28.99609 c 0,-0.54334 -0.63478,-0.63277 -0.99609,-0.99609 v -19.00196 h -6.18555 c -0.41496,-1.23246 -0.92325,-2.47927 -2.07422,-3.02734 -1.53057,-0.728843 -3.39694,-0.972656 -5.24219,-0.972656 z"
           transform="matrix(0.26458333,0,0,0.26458333,0,284.3)"
           id="path2246"
           inkscape:connector-curvature="0"
           inkscape:export-xdpi="826.16193"
           inkscape:export-ydpi="826.16193" />
        <path
           style="color:#000000;font-style:normal;font-variant:normal;font-weight:normal;font-stretch:normal;font-size:medium;line-height:normal;font-family:sans-serif;font-variant-ligatures:normal;font-variant-position:normal;font-variant-caps:normal;font-variant-numeric:normal;font-variant-alternates:normal;font-feature-settings:normal;text-indent:0;text-align:start;text-decoration:none;text-decoration-line:none;text-decoration-style:solid;text-decoration-color:#000000;letter-spacing:normal;word-spacing:normal;text-transform:none;writing-mode:lr-tb;direction:ltr;text-orientation:mixed;dominant-baseline:auto;baseline-shift:baseline;text-anchor:start;white-space:normal;shape-padding:0;clip-rule:nonzero;display:inline;overflow:visible;visibility:visible;opacity:1;isolation:auto;mix-blend-mode:normal;color-interpolation:sRGB;color-interpolation-filters:linearRGB;solid-color:#000000;solid-opacity:1;vector-effect:none;fill:#ed5050;fill-opacity:1;fill-rule:nonzero;stroke:none;stroke-width:0.43010065;stroke-linecap:round;stroke-linejoin:round;stroke-miterlimit:4;stroke-dasharray:none;stroke-dashoffset:0;stroke-opacity:1;color-rendering:auto;image-rendering:auto;shape-rendering:auto;text-rendering:auto;enable-background:accumulate"
           d="m -39.787109,312.75586 c -0.747949,0 -1.361329,0.61142 -1.361329,1.35937 0,0.40894 0.216063,0.80053 0.46875,1.1211 0.126344,0.16028 0.26428,0.30049 0.408204,0.4082 0.143924,0.10771 0.289768,0.19531 0.484375,0.19531 0.194606,0 0.338497,-0.0876 0.482421,-0.19531 0.143925,-0.10771 0.28186,-0.24792 0.408204,-0.4082 0.252687,-0.32057 0.46875,-0.71216 0.46875,-1.1211 0,-0.74795 -0.611426,-1.35937 -1.359375,-1.35937 z"
           id="path2286"
           inkscape:connector-curvature="0"
           inkscape:export-xdpi="826.16193"
           inkscape:export-ydpi="826.16193" />
        <path
           style="color:#000000;font-style:normal;font-variant:normal;font-weight:normal;font-stretch:normal;font-size:medium;line-height:normal;font-family:sans-serif;font-variant-ligatures:normal;font-variant-position:normal;font-variant-caps:normal;font-variant-numeric:normal;font-variant-alternates:normal;font-feature-settings:normal;text-indent:0;text-align:start;text-decoration:none;text-decoration-line:none;text-decoration-style:solid;text-decoration-color:#000000;letter-spacing:normal;word-spacing:normal;text-transform:none;writing-mode:lr-tb;direction:ltr;text-orientation:mixed;dominant-baseline:auto;baseline-shift:baseline;text-anchor:start;white-space:normal;shape-padding:0;clip-rule:nonzero;display:inline;overflow:visible;visibility:visible;opacity:1;isolation:auto;mix-blend-mode:normal;color-interpolation:sRGB;color-interpolation-filters:linearRGB;solid-color:#000000;solid-opacity:1;vector-effect:none;fill:#202733;fill-opacity:1;fill-rule:nonzero;stroke:none;stroke-width:0.43010074;stroke-linecap:round;stroke-linejoin:round;stroke-miterlimit:4;stroke-dasharray:none;stroke-dashoffset:0;stroke-opacity:1;color-rendering:auto;image-rendering:auto;shape-rendering:auto;text-rendering:auto;enable-background:accumulate"
           d="m -42.651499,307.10968 c -0.204327,0 -0.312642,0.10964 -0.312642,0.30903 v 0.22014 h 5.29115 c 0.14617,-5.6e-4 0.265097,0.1179 0.265616,0.26407 v 0.79478 h 0.263551 c 0.146934,5.5e-4 0.266184,-0.11868 0.265615,-0.26562 v -1.05833 c -5.29e-4,-0.14617 -0.119446,-0.26463 -0.265615,-0.26407 z"
           id="path2229"
           inkscape:connector-curvature="0"
           inkscape:export-xdpi="826.16193"
           inkscape:export-ydpi="826.16193" />
        <path
           style="color:#000000;font-style:normal;font-variant:normal;font-weight:normal;font-stretch:normal;font-size:medium;line-height:normal;font-family:sans-serif;font-variant-ligatures:normal;font-variant-position:normal;font-variant-caps:normal;font-variant-numeric:normal;font-variant-alternates:normal;font-feature-settings:normal;text-indent:0;text-align:start;text-decoration:none;text-decoration-line:none;text-decoration-style:solid;text-decoration-color:#000000;letter-spacing:normal;word-spacing:normal;text-transform:none;writing-mode:lr-tb;direction:ltr;text-orientation:mixed;dominant-baseline:auto;baseline-shift:baseline;text-anchor:start;white-space:normal;shape-padding:0;clip-rule:nonzero;display:inline;overflow:visible;visibility:visible;opacity:1;isolation:auto;mix-blend-mode:normal;color-interpolation:sRGB;color-interpolation-filters:linearRGB;solid-color:#000000;solid-opacity:1;vector-effect:none;fill:#ca2a2a;fill-opacity:1;fill-rule:nonzero;stroke:none;stroke-width:1.62557757;stroke-linecap:round;stroke-linejoin:round;stroke-miterlimit:4;stroke-dasharray:none;stroke-dashoffset:0;stroke-opacity:1;color-rendering:auto;image-rendering:auto;shape-rendering:auto;text-rendering:auto;enable-background:accumulate"
           d="m -150.89258,94.212891 c -3.69048,0 -5.53217,0.996093 -7.35937,0.996093 -1.8272,0 -2.73047,-0.77539 -2.73047,-0.77539 -0.58796,-0.394232 -1.15129,-0.253578 -1.4707,0.248047 l -2.79883,5.042968 c -0.51945,0.899721 0.13905,1.970041 0.87107,2.097681 v 0.30859 l 1.89258,-3.408206 c 0.15613,-0.282708 0.43908,-0.472424 0.75976,-0.509765 0.26831,-0.03024 0.53739,0.04949 0.7461,0.220703 0,0 0.90327,0.77539 2.73047,0.77539 1.8272,0 3.66889,-0.996093 7.35937,-0.996093 3.69049,0 5.85648,0.996093 7.35938,0.996093 1.50289,0 2.80664,-0.833984 2.80664,-0.833984 0.48692,-0.325795 1.14838,-0.165226 1.43164,0.347656 l 1.9043,3.433596 c 0.005,-0.003 0.009,-0.007 0.0137,-0.01 v -0.33203 c 1.02388,-0.22186 1.24716,-1.44011 0.85742,-2.08789 l -2.77539,-5.003906 c -0.28324,-0.512844 -0.94472,-0.673413 -1.43164,-0.347656 0,0 -1.30375,0.833984 -2.80664,0.833984 -1.5029,0 -3.66889,-0.996093 -7.35938,-0.996093 z"
           transform="matrix(0.26458333,0,0,0.26458333,0,284.3)"
           id="path2263"
           inkscape:connector-curvature="0"
           sodipodi:nodetypes="csccccccccsssccccccccscc"
           inkscape:export-xdpi="826.16193"
           inkscape:export-ydpi="826.16193" />
        <path
           style="color:#000000;font-style:normal;font-variant:normal;font-weight:normal;font-stretch:normal;font-size:medium;line-height:normal;font-family:sans-serif;font-variant-ligatures:normal;font-variant-position:normal;font-variant-caps:normal;font-variant-numeric:normal;font-variant-alternates:normal;font-feature-settings:normal;text-indent:0;text-align:start;text-decoration:none;text-decoration-line:none;text-decoration-style:solid;text-decoration-color:#000000;letter-spacing:normal;word-spacing:normal;text-transform:none;writing-mode:lr-tb;direction:ltr;text-orientation:mixed;dominant-baseline:auto;baseline-shift:baseline;text-anchor:start;white-space:normal;shape-padding:0;clip-rule:nonzero;display:inline;overflow:visible;visibility:visible;opacity:1;isolation:auto;mix-blend-mode:normal;color-interpolation:sRGB;color-interpolation-filters:linearRGB;solid-color:#000000;solid-opacity:1;vector-effect:none;fill:#ffc576;fill-opacity:1;fill-rule:nonzero;stroke:none;stroke-width:0.43010074;stroke-linecap:round;stroke-linejoin:round;stroke-miterlimit:4;stroke-dasharray:none;stroke-dashoffset:0;stroke-opacity:1;color-rendering:auto;image-rendering:auto;shape-rendering:auto;text-rendering:auto;enable-background:accumulate"
           d="m -37.406022,311.60738 v 5.0276 c 0.09559,0.0961 0.263549,0.1198 0.263549,0.26355 h 1.058333 c 0,-0.14375 -0.167955,-0.16743 -0.263549,-0.26355 v -5.0276 z"
           id="path2268"
           inkscape:connector-curvature="0"
           sodipodi:nodetypes="ccccccc"
           inkscape:export-xdpi="826.16193"
           inkscape:export-ydpi="826.16193" />
        <path
           style="color:#000000;font-style:normal;font-variant:normal;font-weight:normal;font-stretch:normal;font-size:medium;line-height:normal;font-family:sans-serif;font-variant-ligatures:normal;font-variant-position:normal;font-variant-caps:normal;font-variant-numeric:normal;font-variant-alternates:normal;font-feature-settings:normal;text-indent:0;text-align:start;text-decoration:none;text-decoration-line:none;text-decoration-style:solid;text-decoration-color:#000000;letter-spacing:normal;word-spacing:normal;text-transform:none;writing-mode:lr-tb;direction:ltr;text-orientation:mixed;dominant-baseline:auto;baseline-shift:baseline;text-anchor:start;white-space:normal;shape-padding:0;clip-rule:nonzero;display:inline;overflow:visible;visibility:visible;opacity:1;isolation:auto;mix-blend-mode:normal;color-interpolation:sRGB;color-interpolation-filters:linearRGB;solid-color:#000000;solid-opacity:1;vector-effect:none;fill:#ffc576;fill-opacity:1;fill-rule:nonzero;stroke:none;stroke-width:0.43010074;stroke-linecap:round;stroke-linejoin:round;stroke-miterlimit:4;stroke-dasharray:none;stroke-dashoffset:0;stroke-opacity:1;color-rendering:auto;image-rendering:auto;shape-rendering:auto;text-rendering:auto;enable-background:accumulate"
           d="m -39.920082,310.54904 c -0.48822,0 -0.981514,0.0645 -1.386478,0.25735 -0.304527,0.14501 -0.439012,0.4749 -0.548804,0.80099 h -1.637109 v 1.05833 h 1.637109 c 0.109792,-0.32609 0.244277,-0.65597 0.548804,-0.80098 0.404964,-0.19285 0.898258,-0.25735 1.386478,-0.25735 0.488225,0 0.982033,0.0645 1.386996,0.25735 0.304527,0.14501 0.439013,0.47489 0.548804,0.80098 h 1.636593 v -1.05833 h -1.636593 c -0.109791,-0.32609 -0.244277,-0.65598 -0.548804,-0.80099 -0.404963,-0.19284 -0.898771,-0.25735 -1.386996,-0.25735 z"
           id="path2276"
           inkscape:connector-curvature="0"
           sodipodi:nodetypes="sccccccsccccccs"
           inkscape:export-xdpi="826.16193"
           inkscape:export-ydpi="826.16193" />
        <path
           style="color:#000000;font-style:normal;font-variant:normal;font-weight:normal;font-stretch:normal;font-size:medium;line-height:normal;font-family:sans-serif;font-variant-ligatures:normal;font-variant-position:normal;font-variant-caps:normal;font-variant-numeric:normal;font-variant-alternates:normal;font-feature-settings:normal;text-indent:0;text-align:start;text-decoration:none;text-decoration-line:none;text-decoration-style:solid;text-decoration-color:#000000;letter-spacing:normal;word-spacing:normal;text-transform:none;writing-mode:lr-tb;direction:ltr;text-orientation:mixed;dominant-baseline:auto;baseline-shift:baseline;text-anchor:start;white-space:normal;shape-padding:0;clip-rule:nonzero;display:inline;overflow:visible;visibility:visible;opacity:1;isolation:auto;mix-blend-mode:normal;color-interpolation:sRGB;color-interpolation-filters:linearRGB;solid-color:#000000;solid-opacity:1;vector-effect:none;fill:#ca2a2a;fill-opacity:1;fill-rule:nonzero;stroke:none;stroke-width:0.43010065;stroke-linecap:round;stroke-linejoin:round;stroke-miterlimit:4;stroke-dasharray:none;stroke-dashoffset:0;stroke-opacity:1;color-rendering:auto;image-rendering:auto;shape-rendering:auto;text-rendering:auto;enable-background:accumulate"
           d="m -39.787348,312.75563 c -0.43438,0 -0.818857,0.21026 -1.068671,0.52968 0.0035,-3e-5 0.0069,-5.3e-4 0.01035,-5.3e-4 0.747948,0 1.359607,0.61166 1.359607,1.35961 0,0.40894 -0.216019,0.80029 -0.468707,1.12086 -0.01069,0.0136 -0.02275,0.0245 -0.03359,0.0377 0.06226,0.0215 0.127312,0.0367 0.201023,0.0367 0.194606,0 0.338732,-0.0876 0.482658,-0.19533 0.143923,-0.10771 0.281897,-0.24797 0.408241,-0.40825 0.252688,-0.32057 0.468707,-0.71192 0.468707,-1.12086 0,-0.74795 -0.611658,-1.35961 -1.359606,-1.35961 z"
           id="path2288"
           inkscape:connector-curvature="0"
           inkscape:export-xdpi="826.16193"
           inkscape:export-ydpi="826.16193" />
        <path
           style="color:#000000;font-style:normal;font-variant:normal;font-weight:normal;font-stretch:normal;font-size:medium;line-height:normal;font-family:sans-serif;font-variant-ligatures:normal;font-variant-position:normal;font-variant-caps:normal;font-variant-numeric:normal;font-variant-alternates:normal;font-feature-settings:normal;text-indent:0;text-align:start;text-decoration:none;text-decoration-line:none;text-decoration-style:solid;text-decoration-color:#000000;letter-spacing:normal;word-spacing:normal;text-transform:none;writing-mode:lr-tb;direction:ltr;text-orientation:mixed;dominant-baseline:auto;baseline-shift:baseline;text-anchor:start;white-space:normal;shape-padding:0;clip-rule:nonzero;display:inline;overflow:visible;visibility:visible;opacity:1;isolation:auto;mix-blend-mode:normal;color-interpolation:sRGB;color-interpolation-filters:linearRGB;solid-color:#000000;solid-opacity:1;vector-effect:none;fill:#e9e9e9;fill-opacity:1;fill-rule:nonzero;stroke:none;stroke-width:0.43010074;stroke-linecap:round;stroke-linejoin:round;stroke-miterlimit:4;stroke-dasharray:none;stroke-dashoffset:0;stroke-opacity:1;color-rendering:auto;image-rendering:auto;shape-rendering:auto;text-rendering:auto;enable-background:accumulate"
           d="m -33.628883,307.10938 c -0.755425,-10e-6 -1.390513,0.48992 -1.744081,1.20354 0.212995,-0.0924 0.442677,-0.14521 0.685747,-0.14521 1.16336,0 2.042774,1.15836 2.042769,2.51355 0,0.47534 -0.110027,0.92507 -0.300757,1.31051 0.806963,-0.34907 1.35909,-1.29596 1.359091,-2.36885 4e-6,-1.35519 -0.87941,-2.51354 -2.042769,-2.51354 z"
           id="path2317"
           inkscape:connector-curvature="0"
           inkscape:export-xdpi="826.16193"
           inkscape:export-ydpi="826.16193" />
      </g>
      <path
         inkscape:export-ydpi="826.16193"
         inkscape:export-xdpi="826.16193"
         sodipodi:nodetypes="ccccccccccsssssccccccccccccccccccssscccccccccssssscccsssccssccccccsccccccssccccccccccssccccccccccccccsccccsccccccccsccsssccccsscccsss"
         inkscape:connector-curvature="0"
         id="path1323"
         d="m 4.9920039,284.32368 v 1.01338 c -5.292e-4,0.14632 0.117745,0.26532 0.2640669,0.26562 h 0.07958 l -1.103291,1.98799 c -0.06703,0.1161 -0.04782,0.2266 -0.02532,0.31057 0.02921,0.0863 0.08087,0.14919 0.134877,0.19741 0.03401,0.0304 0.08309,0.0255 0.1209231,0.047 v 5.39244 c -0.1804861,0 -0.2558001,0.12061 -0.2558001,0.26566 v 0.79324 c 0,0.28858 0.2312891,0.52916 0.5198671,0.52916 h 6.6150991 c 0.288579,0 0.529167,-0.24058 0.529167,-0.52916 v -0.79324 c 0,-0.16121 -0.0835,-0.26355 -0.263549,-0.26355 v -5.39657 c 0.03805,-0.0216 0.0885,-0.0165 0.122989,-0.047 0.05457,-0.0482 0.102381,-0.10647 0.136943,-0.20102 0.0294,-0.0904 0.0222,-0.21194 -0.02946,-0.30489 l -1.103291,-1.988 h 0.07751 c 0.146925,5.6e-4 0.266176,-0.11869 0.265615,-0.26561 v -1.05834 c -2.64e-4,-0.14632 -0.119295,-0.26462 -0.265615,-0.26406 H 5.3046398 c -0.2101669,0 -0.3126449,0.1222 -0.3126449,0.30897 z m 9.3344101,-0.30902 c -1.163362,-10e-6 -2.04484,1.15835 -2.044838,2.51354 0,0.80255 0.310828,1.53402 0.804604,1.99885 0.04749,0.12339 0.342778,0.94075 0.342098,2.36626 -2.65e-4,0.77577 -0.07504,1.21039 -0.152448,1.60197 -0.0774,0.39158 -0.162263,0.75315 -0.162263,1.30845 2e-6,0.71903 0.544105,1.3224 1.212847,1.3224 0.66874,0 1.212845,-0.60338 1.212845,-1.3224 0,-0.5553 -0.08487,-0.91687 -0.162264,-1.30845 -0.0774,-0.39158 -0.151559,-0.8262 -0.151929,-1.60197 -7.93e-4,-1.42812 0.295476,-2.24635 0.342098,-2.3673 0.492599,-0.46488 0.802019,-1.19584 0.802019,-1.99781 5e-6,-1.35519 -0.879409,-2.51354 -2.042769,-2.51354 z m -8.8046322,0.52917 h 5.0270832 v 0.52916 H 5.5217818 Z m 8.8046322,0 c 0.801865,0 1.513604,0.85542 1.513602,1.98437 -3e-6,1.12894 -0.71174,1.98438 -1.513602,1.98438 -0.801865,0 -1.515668,-0.85544 -1.515671,-1.98438 -3e-6,-1.12895 0.713804,-1.98437 1.515671,-1.98437 z m -8.3845032,1.05885 h 4.1868252 l 0.377756,0.68109 c -0.136226,0.0558 -0.32299,0.11162 -0.523999,0.11162 -0.3976431,0 -0.9707272,-0.26355 -1.9471701,-0.26355 -0.976439,0 -1.463719,0.26355 -1.9471661,0.26355 -0.2362089,0 -0.412083,-0.0491 -0.532268,-0.0992 z m 2.0934121,1.05626 c 0.875647,0 1.3599691,0.26562 1.9471701,0.26562 0.323516,0 0.595024,-0.0916 0.782381,-0.1757 l 0.54002,0.97307 c -0.130022,0.0189 -0.22627,0.13009 -0.226344,0.26148 v 0.52917 h -0.961183 c -0.09163,-0.36666 -0.365392,-0.64401 -0.695047,-0.80099 -0.4049641,-0.19284 -0.8987742,-0.25735 -1.3869971,-0.25735 -0.488219,0 -0.981514,0.0645 -1.386477,0.25735 -0.3296521,0.15698 -0.6034251,0.43433 -0.6950471,0.80099 H 4.9926149 v -0.52917 c -2.11e-4,-0.13203 -0.09813,-0.24347 -0.2289251,-0.26148 l 0.537435,-0.96739 c 0.183636,0.0839 0.450924,0.17002 0.787032,0.17002 0.6483851,0 1.071523,-0.26562 1.9471661,-0.26562 z m 1.1601381,1.52963 c 0.2895669,0.13789 0.427881,0.29358 0.427881,0.58756 3.38e-5,0.1457 0.117843,0.26397 0.2635491,0.26458 v 0.001 H 11.07855 v 4.49843 c 5.29e-4,0.14541 0.118142,0.26304 0.263549,0.26355 v 0.79271 H 4.7269999 v -0.79272 H 10.28325 c 0.352867,0 0.352867,-0.52917 0,-0.52917 H 4.9926149 v -4.23276 h 1.1911439 c 0.1956271,0 0.263549,-0.14391 0.263549,-0.26564 -2.9e-6,-0.29398 0.1383131,-0.44967 0.4278812,-0.58756 0.2895679,-0.13789 0.722313,-0.20516 1.1601368,-0.20515 0.4378251,0 0.870567,0.0673 1.1601352,0.20516 z m -1.0309442,0.3731 c -0.146177,0.002 -0.2636489,0.121 -0.262001,0.26717 V 289.25 l -0.290939,-0.25476 c -0.05344,-0.0476 -0.1239298,-0.0719 -0.1953358,-0.0667 -0.236265,0.0161 -0.333738,0.31091 -0.153996,0.46509 l 0.4128958,0.36174 c -0.5062249,0.19847 -0.8681639,0.69094 -0.8681639,1.26504 0,0.40894 0.216016,0.80029 0.4687039,1.12086 0.1263441,0.16028 0.264319,0.30053 0.4082442,0.40824 0.2907188,0.20949 0.6578708,0.21778 0.9668668,0 0.1439231,-0.10771 0.281898,-0.24796 0.408241,-0.40824 0.2526882,-0.32057 0.468707,-0.71192 0.468707,-1.12086 0,-0.57451 -0.3613989,-1.06736 -0.8676479,-1.26556 l 0.4123799,-0.36119 c 0.192836,-0.16553 0.06447,-0.48152 -0.1891379,-0.46509 -0.05933,0.004 -0.1157809,0.0272 -0.160197,0.0667 l -0.2914539,0.25528 v -0.42168 c 0.00159,-0.14847 -0.1187,-0.26884 -0.2671662,-0.26717 z m 5.5846712,0.37827 c 0.182071,0.065 0.374968,0.1018 0.577226,0.1018 0.201859,0 0.394531,-0.0366 0.576191,-0.10128 -0.102396,0.45142 -0.207621,1.11539 -0.207222,1.95285 2.65e-4,0.81062 0.08271,1.30287 0.162264,1.70532 0.07955,0.40245 0.152445,0.70205 0.152445,1.2051 0,0.44997 -0.34767,0.79271 -0.683678,0.79271 -0.33601,0 -0.683678,-0.34274 -0.683681,-0.79271 0,-0.50305 0.07083,-0.80265 0.150379,-1.2051 0.07955,-0.40245 0.163944,-0.8947 0.164333,-1.70532 5.29e-4,-0.83779 -0.10532,-1.50194 -0.208257,-1.95337 z m -5.5810541,1.25057 c 0.4619699,0 0.83044,0.36794 0.83044,0.82993 0,0.19601 -0.150265,0.53427 -0.3539839,0.79271 -0.101859,0.12922 -0.2143681,0.24103 -0.3100602,0.31264 -0.1132469,0.0802 -0.2179338,0.0672 -0.334346,0 -0.09569,-0.0716 -0.208716,-0.18342 -0.3105759,-0.31264 -0.203718,-0.25844 -0.353464,-0.5967 -0.353464,-0.79271 0,-0.46199 0.370019,-0.82993 0.83199,-0.82993 z"
         style="color:#000000;font-style:normal;font-variant:normal;font-weight:normal;font-stretch:normal;font-size:medium;line-height:normal;font-family:sans-serif;font-variant-ligatures:normal;font-variant-position:normal;font-variant-caps:normal;font-variant-numeric:normal;font-variant-alternates:normal;font-feature-settings:normal;text-indent:0;text-align:start;text-decoration:none;text-decoration-line:none;text-decoration-style:solid;text-decoration-color:#000000;letter-spacing:normal;word-spacing:normal;text-transform:none;writing-mode:lr-tb;direction:ltr;text-orientation:mixed;dominant-baseline:auto;baseline-shift:baseline;text-anchor:start;white-space:normal;shape-padding:0;clip-rule:nonzero;display:inline;overflow:visible;visibility:visible;opacity:1;isolation:auto;mix-blend-mode:normal;color-interpolation:sRGB;color-interpolation-filters:linearRGB;solid-color:#000000;solid-opacity:1;vector-effect:none;fill:#1a1a1a;fill-opacity:1;fill-rule:nonzero;stroke:none;stroke-width:0.43010074;stroke-linecap:round;stroke-linejoin:round;stroke-miterlimit:4;stroke-dasharray:none;stroke-dashoffset:0;stroke-opacity:1;color-rendering:auto;image-rendering:auto;shape-rendering:auto;text-rendering:auto;enable-background:accumulate" />
    </g>
  </g>
</svg>
