<?xml version="1.0" ?><!DOCTYPE svg  PUBLIC '-//W3C//DTD SVG 1.1//EN'  'http://www.w3.org/Graphics/SVG/1.1/DTD/svg11.dtd'><svg enable-background="new 0 0 70 70" id="Layer_1" version="1.1" viewBox="0 0 70 70" xml:space="preserve" xmlns="http://www.w3.org/2000/svg" xmlns:xlink="http://www.w3.org/1999/xlink"><g><path d="M62.6357422,53.3662109c-0.0039063,0-0.0078125,0-0.0107422,0   c-0.4150391-0.0058594-0.7451172-0.3466797-0.7392578-0.7607422l0.4990234-33.2841797   c0.0224609-1.5146484-0.0380859-3.2060547-1.0439453-4.0869141c-0.8115234-0.7128906-2.0888672-0.7763672-3.4375-0.7822266   l-23.8652344-0.0908203c-3.5449219-0.0136719-7.0029297-0.0771484-10.3466797-0.1386719   c-3.3232422-0.0615234-6.7587891-0.125-10.2753906-0.1386719c-1.9121094,0.0097656-3.6962891,0.0761719-4.8398438,1.1503906   c-1.2890625,1.2099609-1.3486328,3.2939453-1.2978516,5.3242188c0.1044922,4.1972656,0.140625,8.4941406,0.1748047,12.6503906   C7.5068359,39.5820313,7.5625,46.1708984,7.8652344,52.578125c0.0195313,0.4130859-0.2998047,0.7646484-0.7138672,0.7841797   c-0.375,0.0341797-0.7646484-0.2988281-0.7841797-0.7138672C6.0625,46.2128906,6.0068359,39.6083984,5.9541016,33.2216797   c-0.0351563-4.1494141-0.0712891-8.4414063-0.1757813-12.6259766c-0.0556641-2.2666016,0.0302734-4.8212891,1.7705078-6.4550781   c1.5458984-1.4511719,3.7451172-1.5449219,5.8730469-1.5566406c3.5273438,0.0136719,6.96875,0.0771484,10.296875,0.1386719   c3.3388672,0.0615234,6.7910156,0.125,10.3251953,0.1386719l23.8652344,0.0908203   c1.2431641,0.0048828,3.1201172,0.0136719,4.4208984,1.1542969c1.4863281,1.3027344,1.5820313,3.3867188,1.5546875,5.2373047   l-0.4990234,33.2832031C63.3798828,53.0380859,63.0449219,53.3662109,62.6357422,53.3662109z" fill="#373684"/><path d="M8.3222656,58.0742188c-0.6943359,0-1.5009766-0.0244141-2.2861328-0.3125   C4.9384766,57.3613281,4.1669922,56.4941406,4.0234375,55.5c-0.2041016-1.4013672,0.8330078-2.5478516,1.8818359-3.0195313   c0.921875-0.4130859,1.9023438-0.4472656,2.75-0.4472656l0.3662109,0.0019531l52.5341797,0.4501953   c0.7607422,0.0058594,1.7080078,0.0126953,2.5634766,0.4160156c1.0839844,0.5087891,1.7226563,1.5839844,1.5537109,2.6132813   c-0.2216797,1.3583984-1.6015625,2.1474609-3.7861328,2.1650391L8.3222656,58.0742188z M8.6552734,53.5332031   c-0.6923828,0-1.484375,0.0244141-2.1357422,0.3164063c-0.5546875,0.2490234-1.0986328,0.8369141-1.0117188,1.4355469   c0.0722656,0.5009766,0.5761719,0.8974609,1.0439453,1.0683594c0.5546875,0.203125,1.2050781,0.2207031,1.7705078,0.2207031   l0.3115234-0.0019531L61.875,56.1796875c1.0498047-0.0078125,2.2099609-0.2509766,2.3173828-0.9082031   c0.0644531-0.3945313-0.3105469-0.8242188-0.7119141-1.0126953c-0.5576172-0.2626953-1.2587891-0.2685547-1.9375-0.2734375   L8.6552734,53.5332031z" fill="#373684"/><path d="M18.9492188,53.4648438c-0.3164063,0-0.6103516-0.2021484-0.7138672-0.5185547   c-0.1972656-0.6103516-0.1621094-1.2207031-0.1308594-1.7597656c0.0097656-0.1660156,0.0195313-0.3320313,0.0214844-0.4960938   c0.0078125-0.5673828-0.1318359-0.9951172-0.3740234-1.1455078c-0.2128906-0.1318359-0.6025391-0.1230469-0.9169922-0.1142578   L13.1875,49.5136719c-0.4052734,0.0087891-0.7841797,0.0292969-0.9794922,0.1835938   c-0.1806641,0.1425781-0.2841797,0.4873047-0.2832031,0.9462891c0.0009766,0.1572266,0.0097656,0.3164063,0.0185547,0.4755859   c0.0224609,0.4189453,0.0488281,0.8935547-0.0585938,1.3779297c-0.0888672,0.4042969-0.4902344,0.6582031-0.8945313,0.5703125   c-0.4042969-0.0898438-0.6591797-0.4902344-0.5703125-0.8945313c0.0625-0.2841797,0.0449219-0.6181641,0.0253906-0.9716797   c-0.0097656-0.1855469-0.0195313-0.3701172-0.0205078-0.5537109c-0.0019531-0.9492188,0.2929688-1.6845703,0.8535156-2.1269531   c0.6054688-0.4794922,1.3701172-0.4960938,1.875-0.5068359l3.6474609-0.0830078   c0.4863281-0.0107422,1.1503906-0.0263672,1.7412109,0.3388672c0.7148438,0.4433594,1.1005859,1.3105469,1.0839844,2.4414063   c-0.0029297,0.1855469-0.0126953,0.3730469-0.0234375,0.5615234c-0.0263672,0.4472656-0.0507813,0.8691406,0.0605469,1.2109375   c0.1269531,0.3945313-0.0888672,0.8173828-0.4824219,0.9453125C19.1035156,53.453125,19.0253906,53.4648438,18.9492188,53.4648438z   " fill="#373684"/><path d="M12.8574219,28.0429688c-0.0039063,0-0.0087891,0-0.0126953,0   c-0.4140625-0.0078125-0.7441406-0.3486328-0.7373047-0.7626953l0.1474609-8.4189453   c0.0078125-0.4091797,0.3417969-0.7363281,0.75-0.7363281c0.0039063,0,0.0087891,0,0.0136719,0   c0.4140625,0.0078125,0.7431641,0.3496094,0.7363281,0.7636719l-0.1474609,8.4169922   C13.6005859,27.7158203,13.265625,28.0429688,12.8574219,28.0429688z" fill="#373684"/><path d="M31.2851563,28.3701172c-0.3740234,0-0.6972656-0.2792969-0.7431641-0.6591797   c-0.3554688-2.9160156-0.4736328-5.8847656-0.3496094-8.8222656c0.0175781-0.4140625,0.359375-0.7529297,0.7802734-0.7177734   c0.4140625,0.0166016,0.7353516,0.3662109,0.7177734,0.7802734c-0.1201172,2.8574219-0.0058594,5.7431641,0.3398438,8.578125   c0.0507813,0.4111328-0.2421875,0.7851563-0.6533203,0.8349609C31.3457031,28.3681641,31.3154297,28.3701172,31.2851563,28.3701172   z" fill="#373684"/><path d="M22.0117188,27.1640625c-0.3974609,0-0.7294922-0.3134766-0.7480469-0.7148438l-0.3193359-6.7900391   c-0.0195313-0.4140625,0.2998047-0.7646484,0.7138672-0.7841797c0.3886719-0.0263672,0.765625,0.2998047,0.7841797,0.7138672   l0.3193359,6.7900391c0.0195313,0.4140625-0.2998047,0.7646484-0.7138672,0.7841797   C22.0361328,27.1640625,22.0244141,27.1640625,22.0117188,27.1640625z" fill="#373684"/><path d="M22.6914063,23.8535156c-1.2597656,0-2.5224609-0.0654297-3.7734375-0.1972656   c-0.4121094-0.0439453-0.7109375-0.4121094-0.6679688-0.8242188c0.0439453-0.4121094,0.4208984-0.7128906,0.8242188-0.6679688   c1.9912109,0.2089844,4.0078125,0.2441406,5.9970703,0.1074219c0.4091797-0.0195313,0.7714844,0.2832031,0.7998047,0.6962891   c0.0292969,0.4130859-0.2832031,0.7714844-0.6962891,0.7998047C24.3505859,23.8251953,23.5214844,23.8535156,22.6914063,23.8535156   z" fill="#373684"/><path d="M36.875,21.640625c-0.3984375,0-0.7304688-0.3144531-0.7480469-0.7177734   c-0.0185547-0.4140625,0.3027344-0.7636719,0.7167969-0.78125l6.2900391-0.2724609   c0.3779297-0.0419922,0.7626953,0.3017578,0.78125,0.7167969c0.0185547,0.4140625-0.3027344,0.7636719-0.7167969,0.78125   l-6.2900391,0.2724609C36.8974609,21.640625,36.8867188,21.640625,36.875,21.640625z" fill="#373684"/><path d="M36.3291016,26.0615234c-0.3583984,0-0.6757813-0.2578125-0.7382813-0.6240234   c-0.0693359-0.4082031,0.2050781-0.7958984,0.6132813-0.8652344c2.4628906-0.4208984,4.9775391-0.5380859,7.4755859-0.3525391   c0.4130859,0.03125,0.7226563,0.390625,0.6923828,0.8037109s-0.3876953,0.7226563-0.8037109,0.6923828   c-2.3769531-0.1787109-4.7675781-0.0644531-7.1123047,0.3349609   C36.4130859,26.0585938,36.3710938,26.0615234,36.3291016,26.0615234z" fill="#373684"/></g></svg>