<?xml version="1.0" ?><!DOCTYPE svg  PUBLIC '-//W3C//DTD SVG 1.1//EN'  'http://www.w3.org/Graphics/SVG/1.1/DTD/svg11.dtd'><svg height="512px" style="enable-background:new 0 0 512 512;" version="1.1" viewBox="0 0 512 512" width="512px" xml:space="preserve" xmlns="http://www.w3.org/2000/svg" xmlns:xlink="http://www.w3.org/1999/xlink"><g id="windows__x2C__2__x2C__os__x2C__pc__x2C__computer__x2C_"><g><path d="M492.871,374.948c0,65.451-53.089,118.502-118.565,118.502H137.168    c-65.497,0-118.566-53.051-118.566-118.502V138.009c0-65.451,53.069-118.483,118.566-118.483h237.137    c65.477,0,118.565,53.032,118.565,118.483V374.948z" style="fill:#9CC464;"/><polygon points="107.526,361.7 227.14,378.998 227.14,264.668 107.526,264.668   " style="fill:#FFFFFF;"/><polygon points="243.485,381.37 403.947,404.588 403.947,264.668 243.485,264.668   " style="fill:#FFFFFF;"/><polygon points="243.485,248.334 403.947,248.334 403.947,108.389 243.485,131.606   " style="fill:#FFFFFF;"/><polygon points="227.14,133.979 107.526,151.296 107.526,248.334 227.14,248.334   " style="fill:#FFFFFF;"/><polygon points="107.526,361.7 227.14,378.998 227.14,264.668 107.526,264.668   " style="fill:#FFFFFF;"/><polygon points="243.485,381.37 403.947,404.588 403.947,264.668 243.485,264.668   " style="fill:#FFFFFF;"/><polygon points="243.485,248.334 403.947,248.334 403.947,108.389 243.485,131.606   " style="fill:#FFFFFF;"/><polygon points="227.14,133.979 107.526,151.296 107.526,248.334 227.14,248.334   " style="fill:#FFFFFF;"/><path d="M227.14,264.668v114.33L107.526,361.7v-97.032H227.14 M227.14,254.791H107.526    c-5.455,0-9.877,4.422-9.877,9.877V361.7c0,4.909,3.605,9.072,8.463,9.775l119.614,17.298c0.471,0.068,0.944,0.102,1.414,0.102    c2.359,0,4.658-0.846,6.464-2.41c2.167-1.876,3.412-4.601,3.412-7.467v-114.33C237.017,259.213,232.595,254.791,227.14,254.791    L227.14,254.791z M403.947,264.668v139.92L243.485,381.37V264.668H403.947 M403.947,254.791H243.485    c-5.455,0-9.877,4.422-9.877,9.877V381.37c0,4.908,3.604,9.072,8.462,9.775l160.463,23.218c0.471,0.068,0.944,0.102,1.414,0.102    c2.359,0,4.658-0.846,6.465-2.409c2.167-1.876,3.412-4.602,3.412-7.468v-139.92C413.824,259.213,409.402,254.791,403.947,254.791    L403.947,254.791z M403.947,108.389v139.945H243.485V131.606L403.947,108.389 M403.947,98.512c-0.47,0-0.942,0.034-1.414,0.102    L242.07,121.831c-4.858,0.703-8.462,4.867-8.462,9.775v116.728c0,5.455,4.422,9.877,9.877,9.877h160.462    c5.455,0,9.877-4.422,9.877-9.877V108.389c0-2.866-1.245-5.591-3.412-7.467C408.605,99.357,406.307,98.512,403.947,98.512    L403.947,98.512z M227.14,133.979v114.355H107.526v-97.038L227.14,133.979 M227.141,124.102c-0.471,0-0.944,0.034-1.416,0.102    l-119.614,17.317c-4.858,0.703-8.462,4.867-8.462,9.775v97.038c0,5.455,4.422,9.877,9.877,9.877H227.14    c5.455,0,9.877-4.422,9.877-9.877V133.979c0-2.867-1.245-5.592-3.413-7.468C231.798,124.947,229.499,124.102,227.141,124.102    L227.141,124.102z M364.039,478.061H147.415c-62.448,0-113.253-50.818-113.253-113.283V148.179    c0-62.454,50.805-113.263,113.253-113.263h216.624c62.459,0,113.272,50.81,113.272,113.263v216.599    C477.312,427.242,426.498,478.061,364.039,478.061z M147.415,44.818c-56.988,0-103.351,46.367-103.351,103.36v216.599    c0,57.004,46.363,103.381,103.351,103.381h216.624c56.998,0,103.37-46.377,103.37-103.381V148.179    c0-56.993-46.372-103.36-103.37-103.36H147.415z" style="fill:#75934B;"/></g></g><g id="Layer_1"/></svg>